<mxfile host="app.diagrams.net" modified="2023-11-08T13:55:32.112Z" agent="Mozilla/5.0 (Windows NT 10.0; Win64; x64) AppleWebKit/537.36 (KHTML, like Gecko) Chrome/119.0.0.0 Safari/537.36" etag="q4eVlBGfztXabOWK5mIB" version="22.0.8" type="device">
  <diagram name="Seite-1" id="L0e9eQvxEd3R1-ClZV6Y">
    <mxGraphModel dx="5372" dy="1706" grid="1" gridSize="10" guides="1" tooltips="1" connect="1" arrows="1" fold="1" page="1" pageScale="1" pageWidth="827" pageHeight="1169" math="0" shadow="0">
      <root>
        <mxCell id="0" />
        <mxCell id="1" parent="0" />
        <mxCell id="WZqHGrQ1ZvMK2-V5_D06-6" style="edgeStyle=orthogonalEdgeStyle;rounded=0;orthogonalLoop=1;jettySize=auto;html=1;exitX=0;exitY=0.5;exitDx=0;exitDy=0;strokeWidth=2;fontSize=12;" edge="1" parent="1" source="WZqHGrQ1ZvMK2-V5_D06-1" target="WZqHGrQ1ZvMK2-V5_D06-5">
          <mxGeometry relative="1" as="geometry" />
        </mxCell>
        <mxCell id="WZqHGrQ1ZvMK2-V5_D06-7" value="&lt;font style=&quot;font-size: 14px;&quot;&gt;isRegulatedBy&lt;/font&gt;" style="edgeLabel;html=1;align=center;verticalAlign=middle;resizable=0;points=[];" vertex="1" connectable="0" parent="WZqHGrQ1ZvMK2-V5_D06-6">
          <mxGeometry x="-0.075" y="-3" relative="1" as="geometry">
            <mxPoint as="offset" />
          </mxGeometry>
        </mxCell>
        <mxCell id="WZqHGrQ1ZvMK2-V5_D06-1" value="Country" style="ellipse;whiteSpace=wrap;html=1;strokeWidth=2;fillColor=#d5e8d4;strokeColor=#82b366;" vertex="1" parent="1">
          <mxGeometry x="640" y="80" width="120" height="60" as="geometry" />
        </mxCell>
        <mxCell id="WZqHGrQ1ZvMK2-V5_D06-3" style="edgeStyle=orthogonalEdgeStyle;rounded=1;orthogonalLoop=1;jettySize=auto;html=1;exitX=0.5;exitY=0;exitDx=0;exitDy=0;entryX=1;entryY=0.5;entryDx=0;entryDy=0;strokeWidth=2;fontSize=12;" edge="1" parent="1" source="WZqHGrQ1ZvMK2-V5_D06-2" target="WZqHGrQ1ZvMK2-V5_D06-1">
          <mxGeometry relative="1" as="geometry">
            <Array as="points">
              <mxPoint x="980" y="110" />
            </Array>
          </mxGeometry>
        </mxCell>
        <mxCell id="WZqHGrQ1ZvMK2-V5_D06-4" value="&lt;font style=&quot;font-size: 14px;&quot;&gt;operatesIn&lt;/font&gt;" style="edgeLabel;html=1;align=center;verticalAlign=middle;resizable=0;points=[];" vertex="1" connectable="0" parent="WZqHGrQ1ZvMK2-V5_D06-3">
          <mxGeometry x="0.125" relative="1" as="geometry">
            <mxPoint as="offset" />
          </mxGeometry>
        </mxCell>
        <mxCell id="WZqHGrQ1ZvMK2-V5_D06-27" style="edgeStyle=orthogonalEdgeStyle;rounded=1;orthogonalLoop=1;jettySize=auto;html=1;exitX=0;exitY=0.5;exitDx=0;exitDy=0;entryX=1;entryY=0.5;entryDx=0;entryDy=0;strokeWidth=2;fontSize=12;" edge="1" parent="1" source="WZqHGrQ1ZvMK2-V5_D06-2" target="WZqHGrQ1ZvMK2-V5_D06-24">
          <mxGeometry relative="1" as="geometry">
            <Array as="points">
              <mxPoint x="920" y="430" />
            </Array>
          </mxGeometry>
        </mxCell>
        <mxCell id="WZqHGrQ1ZvMK2-V5_D06-28" value="&lt;font style=&quot;font-size: 14px;&quot;&gt;implements&lt;/font&gt;" style="edgeLabel;html=1;align=center;verticalAlign=middle;resizable=0;points=[];" vertex="1" connectable="0" parent="WZqHGrQ1ZvMK2-V5_D06-27">
          <mxGeometry x="-0.0903" y="1" relative="1" as="geometry">
            <mxPoint as="offset" />
          </mxGeometry>
        </mxCell>
        <mxCell id="WZqHGrQ1ZvMK2-V5_D06-56" style="edgeStyle=orthogonalEdgeStyle;rounded=0;orthogonalLoop=1;jettySize=auto;html=1;exitX=1;exitY=0.5;exitDx=0;exitDy=0;strokeWidth=2;fontSize=12;" edge="1" parent="1" source="WZqHGrQ1ZvMK2-V5_D06-2" target="WZqHGrQ1ZvMK2-V5_D06-55">
          <mxGeometry relative="1" as="geometry" />
        </mxCell>
        <mxCell id="WZqHGrQ1ZvMK2-V5_D06-57" value="has" style="edgeLabel;html=1;align=center;verticalAlign=middle;resizable=0;points=[];" vertex="1" connectable="0" parent="WZqHGrQ1ZvMK2-V5_D06-56">
          <mxGeometry x="0.187" y="2" relative="1" as="geometry">
            <mxPoint as="offset" />
          </mxGeometry>
        </mxCell>
        <mxCell id="WZqHGrQ1ZvMK2-V5_D06-2" value="Enterprise" style="ellipse;whiteSpace=wrap;html=1;strokeWidth=2;fillColor=#dae8fc;strokeColor=#6c8ebf;" vertex="1" parent="1">
          <mxGeometry x="920" y="320" width="120" height="60" as="geometry" />
        </mxCell>
        <mxCell id="WZqHGrQ1ZvMK2-V5_D06-9" style="edgeStyle=orthogonalEdgeStyle;rounded=0;orthogonalLoop=1;jettySize=auto;html=1;exitX=0.5;exitY=1;exitDx=0;exitDy=0;strokeWidth=2;fontSize=12;" edge="1" parent="1" source="WZqHGrQ1ZvMK2-V5_D06-5" target="WZqHGrQ1ZvMK2-V5_D06-8">
          <mxGeometry relative="1" as="geometry" />
        </mxCell>
        <mxCell id="WZqHGrQ1ZvMK2-V5_D06-10" value="has" style="edgeLabel;html=1;align=center;verticalAlign=middle;resizable=0;points=[];" vertex="1" connectable="0" parent="WZqHGrQ1ZvMK2-V5_D06-9">
          <mxGeometry x="-0.1333" y="2" relative="1" as="geometry">
            <mxPoint as="offset" />
          </mxGeometry>
        </mxCell>
        <mxCell id="WZqHGrQ1ZvMK2-V5_D06-5" value="Jurisdiction" style="ellipse;whiteSpace=wrap;html=1;strokeWidth=2;fontSize=12;fillColor=#d5e8d4;strokeColor=#82b366;" vertex="1" parent="1">
          <mxGeometry x="100" y="80" width="120" height="60" as="geometry" />
        </mxCell>
        <mxCell id="WZqHGrQ1ZvMK2-V5_D06-25" style="edgeStyle=orthogonalEdgeStyle;rounded=1;orthogonalLoop=1;jettySize=auto;html=1;exitX=1;exitY=0.5;exitDx=0;exitDy=0;strokeWidth=2;fontSize=12;" edge="1" parent="1" source="WZqHGrQ1ZvMK2-V5_D06-8" target="WZqHGrQ1ZvMK2-V5_D06-24">
          <mxGeometry relative="1" as="geometry">
            <Array as="points">
              <mxPoint x="300" y="350" />
              <mxPoint x="300" y="430" />
            </Array>
          </mxGeometry>
        </mxCell>
        <mxCell id="WZqHGrQ1ZvMK2-V5_D06-26" value="&lt;font style=&quot;font-size: 14px;&quot;&gt;requires&lt;/font&gt;" style="edgeLabel;html=1;align=center;verticalAlign=middle;resizable=0;points=[];" vertex="1" connectable="0" parent="WZqHGrQ1ZvMK2-V5_D06-25">
          <mxGeometry x="-0.2" y="-3" relative="1" as="geometry">
            <mxPoint as="offset" />
          </mxGeometry>
        </mxCell>
        <mxCell id="WZqHGrQ1ZvMK2-V5_D06-8" value="Regulation" style="ellipse;whiteSpace=wrap;html=1;strokeWidth=2;fillColor=#d5e8d4;strokeColor=#82b366;" vertex="1" parent="1">
          <mxGeometry x="100" y="320" width="120" height="60" as="geometry" />
        </mxCell>
        <mxCell id="WZqHGrQ1ZvMK2-V5_D06-13" style="edgeStyle=orthogonalEdgeStyle;rounded=1;orthogonalLoop=1;jettySize=auto;html=1;exitX=0.5;exitY=0;exitDx=0;exitDy=0;entryX=0.5;entryY=1;entryDx=0;entryDy=0;dashed=1;dashPattern=8 8;strokeWidth=2;" edge="1" parent="1" source="WZqHGrQ1ZvMK2-V5_D06-11" target="WZqHGrQ1ZvMK2-V5_D06-1">
          <mxGeometry relative="1" as="geometry" />
        </mxCell>
        <mxCell id="WZqHGrQ1ZvMK2-V5_D06-11" value="US" style="ellipse;whiteSpace=wrap;html=1;strokeWidth=2;fillColor=#d5e8d4;strokeColor=#82b366;" vertex="1" parent="1">
          <mxGeometry x="610" y="190" width="76" height="40" as="geometry" />
        </mxCell>
        <mxCell id="WZqHGrQ1ZvMK2-V5_D06-14" style="edgeStyle=orthogonalEdgeStyle;rounded=1;orthogonalLoop=1;jettySize=auto;html=1;exitX=0.5;exitY=0;exitDx=0;exitDy=0;entryX=0.5;entryY=1;entryDx=0;entryDy=0;dashed=1;dashPattern=8 8;strokeWidth=2;" edge="1" parent="1" source="WZqHGrQ1ZvMK2-V5_D06-12" target="WZqHGrQ1ZvMK2-V5_D06-1">
          <mxGeometry relative="1" as="geometry" />
        </mxCell>
        <mxCell id="WZqHGrQ1ZvMK2-V5_D06-12" value="EU" style="ellipse;whiteSpace=wrap;html=1;strokeWidth=2;fillColor=#d5e8d4;strokeColor=#82b366;" vertex="1" parent="1">
          <mxGeometry x="720" y="190" width="70" height="40" as="geometry" />
        </mxCell>
        <mxCell id="WZqHGrQ1ZvMK2-V5_D06-16" style="edgeStyle=orthogonalEdgeStyle;rounded=1;orthogonalLoop=1;jettySize=auto;html=1;exitX=0.5;exitY=0;exitDx=0;exitDy=0;dashed=1;dashPattern=8 8;strokeWidth=2;" edge="1" parent="1" source="WZqHGrQ1ZvMK2-V5_D06-15" target="WZqHGrQ1ZvMK2-V5_D06-8">
          <mxGeometry relative="1" as="geometry" />
        </mxCell>
        <mxCell id="WZqHGrQ1ZvMK2-V5_D06-15" value="GDPR" style="ellipse;whiteSpace=wrap;html=1;strokeWidth=2;fillColor=#d5e8d4;strokeColor=#82b366;" vertex="1" parent="1">
          <mxGeometry x="120" y="440" width="80" height="40" as="geometry" />
        </mxCell>
        <mxCell id="WZqHGrQ1ZvMK2-V5_D06-17" value="GDPR_Articles" style="ellipse;whiteSpace=wrap;html=1;strokeWidth=2;fillColor=#d5e8d4;strokeColor=#82b366;" vertex="1" parent="1">
          <mxGeometry x="-40" y="520" width="100" height="40" as="geometry" />
        </mxCell>
        <mxCell id="WZqHGrQ1ZvMK2-V5_D06-21" style="edgeStyle=orthogonalEdgeStyle;rounded=0;orthogonalLoop=1;jettySize=auto;html=1;exitX=0.5;exitY=0;exitDx=0;exitDy=0;dashed=1;dashPattern=8 8;strokeWidth=2;" edge="1" parent="1" source="WZqHGrQ1ZvMK2-V5_D06-18" target="WZqHGrQ1ZvMK2-V5_D06-15">
          <mxGeometry relative="1" as="geometry" />
        </mxCell>
        <mxCell id="WZqHGrQ1ZvMK2-V5_D06-18" value="GDPR_Chapters" style="ellipse;whiteSpace=wrap;html=1;strokeWidth=2;fillColor=#d5e8d4;strokeColor=#82b366;" vertex="1" parent="1">
          <mxGeometry x="108" y="530" width="100" height="40" as="geometry" />
        </mxCell>
        <mxCell id="WZqHGrQ1ZvMK2-V5_D06-19" value="GDPR_Keywords" style="ellipse;whiteSpace=wrap;html=1;strokeWidth=2;fillColor=#d5e8d4;strokeColor=#82b366;" vertex="1" parent="1">
          <mxGeometry x="270" y="520" width="100" height="40" as="geometry" />
        </mxCell>
        <mxCell id="WZqHGrQ1ZvMK2-V5_D06-20" style="edgeStyle=orthogonalEdgeStyle;rounded=1;orthogonalLoop=1;jettySize=auto;html=1;exitX=0.5;exitY=0;exitDx=0;exitDy=0;dashed=1;dashPattern=8 8;entryX=0.5;entryY=1;entryDx=0;entryDy=0;strokeWidth=2;" edge="1" parent="1" source="WZqHGrQ1ZvMK2-V5_D06-17" target="WZqHGrQ1ZvMK2-V5_D06-15">
          <mxGeometry relative="1" as="geometry">
            <mxPoint x="88" y="479.5" as="sourcePoint" />
            <mxPoint x="50" y="429.5" as="targetPoint" />
          </mxGeometry>
        </mxCell>
        <mxCell id="WZqHGrQ1ZvMK2-V5_D06-23" style="edgeStyle=orthogonalEdgeStyle;rounded=1;orthogonalLoop=1;jettySize=auto;html=1;exitX=0.5;exitY=0;exitDx=0;exitDy=0;dashed=1;dashPattern=8 8;entryX=0.5;entryY=1;entryDx=0;entryDy=0;strokeWidth=2;" edge="1" parent="1" source="WZqHGrQ1ZvMK2-V5_D06-19" target="WZqHGrQ1ZvMK2-V5_D06-15">
          <mxGeometry relative="1" as="geometry">
            <mxPoint x="20" y="530" as="sourcePoint" />
            <mxPoint x="170" y="490" as="targetPoint" />
          </mxGeometry>
        </mxCell>
        <mxCell id="WZqHGrQ1ZvMK2-V5_D06-36" style="edgeStyle=orthogonalEdgeStyle;rounded=0;orthogonalLoop=1;jettySize=auto;html=1;exitX=0.5;exitY=1;exitDx=0;exitDy=0;strokeWidth=2;fontSize=12;" edge="1" parent="1" source="WZqHGrQ1ZvMK2-V5_D06-24">
          <mxGeometry relative="1" as="geometry">
            <mxPoint x="530" y="520" as="targetPoint" />
          </mxGeometry>
        </mxCell>
        <mxCell id="WZqHGrQ1ZvMK2-V5_D06-38" value="&lt;font style=&quot;font-size: 14px;&quot;&gt;specifies&lt;/font&gt;" style="edgeLabel;html=1;align=center;verticalAlign=middle;resizable=0;points=[];" vertex="1" connectable="0" parent="WZqHGrQ1ZvMK2-V5_D06-36">
          <mxGeometry x="-0.3058" y="-1" relative="1" as="geometry">
            <mxPoint as="offset" />
          </mxGeometry>
        </mxCell>
        <mxCell id="WZqHGrQ1ZvMK2-V5_D06-24" value="IG_Program" style="ellipse;whiteSpace=wrap;html=1;strokeWidth=2;fillColor=#dae8fc;strokeColor=#6c8ebf;" vertex="1" parent="1">
          <mxGeometry x="470" y="400" width="120" height="60" as="geometry" />
        </mxCell>
        <mxCell id="WZqHGrQ1ZvMK2-V5_D06-34" style="edgeStyle=orthogonalEdgeStyle;rounded=0;orthogonalLoop=1;jettySize=auto;html=1;exitX=0.5;exitY=1;exitDx=0;exitDy=0;strokeWidth=2;fontSize=12;" edge="1" parent="1" source="WZqHGrQ1ZvMK2-V5_D06-29" target="WZqHGrQ1ZvMK2-V5_D06-24">
          <mxGeometry relative="1" as="geometry" />
        </mxCell>
        <mxCell id="WZqHGrQ1ZvMK2-V5_D06-35" value="&lt;font style=&quot;font-size: 14px;&quot;&gt;strategyFor&lt;/font&gt;" style="edgeLabel;html=1;align=center;verticalAlign=middle;resizable=0;points=[];" vertex="1" connectable="0" parent="WZqHGrQ1ZvMK2-V5_D06-34">
          <mxGeometry x="-0.08" y="-1" relative="1" as="geometry">
            <mxPoint as="offset" />
          </mxGeometry>
        </mxCell>
        <mxCell id="WZqHGrQ1ZvMK2-V5_D06-29" value="IG_Strategic_plan" style="ellipse;whiteSpace=wrap;html=1;strokeWidth=2;fillColor=#dae8fc;strokeColor=#6c8ebf;" vertex="1" parent="1">
          <mxGeometry x="470" y="290" width="120" height="60" as="geometry" />
        </mxCell>
        <mxCell id="WZqHGrQ1ZvMK2-V5_D06-30" style="edgeStyle=orthogonalEdgeStyle;rounded=1;orthogonalLoop=1;jettySize=auto;html=1;exitX=0;exitY=0.5;exitDx=0;exitDy=0;entryX=1;entryY=0.5;entryDx=0;entryDy=0;strokeWidth=2;fontSize=12;" edge="1" parent="1" source="WZqHGrQ1ZvMK2-V5_D06-2" target="WZqHGrQ1ZvMK2-V5_D06-29">
          <mxGeometry relative="1" as="geometry">
            <mxPoint x="930" y="360" as="sourcePoint" />
            <mxPoint x="600" y="440" as="targetPoint" />
            <Array as="points">
              <mxPoint x="780" y="350" />
              <mxPoint x="780" y="320" />
            </Array>
          </mxGeometry>
        </mxCell>
        <mxCell id="WZqHGrQ1ZvMK2-V5_D06-31" value="&lt;font style=&quot;font-size: 14px;&quot;&gt;implements&lt;/font&gt;" style="edgeLabel;html=1;align=center;verticalAlign=middle;resizable=0;points=[];" vertex="1" connectable="0" parent="WZqHGrQ1ZvMK2-V5_D06-30">
          <mxGeometry x="-0.0903" y="1" relative="1" as="geometry">
            <mxPoint as="offset" />
          </mxGeometry>
        </mxCell>
        <mxCell id="WZqHGrQ1ZvMK2-V5_D06-32" style="edgeStyle=orthogonalEdgeStyle;rounded=1;orthogonalLoop=1;jettySize=auto;html=1;exitX=1;exitY=0.5;exitDx=0;exitDy=0;entryX=0;entryY=0.5;entryDx=0;entryDy=0;strokeWidth=2;fontSize=12;" edge="1" parent="1" source="WZqHGrQ1ZvMK2-V5_D06-8" target="WZqHGrQ1ZvMK2-V5_D06-29">
          <mxGeometry relative="1" as="geometry">
            <mxPoint x="230" y="360" as="sourcePoint" />
            <mxPoint x="480" y="440" as="targetPoint" />
            <Array as="points">
              <mxPoint x="300" y="350" />
              <mxPoint x="300" y="320" />
            </Array>
          </mxGeometry>
        </mxCell>
        <mxCell id="WZqHGrQ1ZvMK2-V5_D06-33" value="&lt;font style=&quot;font-size: 14px;&quot;&gt;requires&lt;/font&gt;" style="edgeLabel;html=1;align=center;verticalAlign=middle;resizable=0;points=[];" vertex="1" connectable="0" parent="WZqHGrQ1ZvMK2-V5_D06-32">
          <mxGeometry x="-0.2" y="-3" relative="1" as="geometry">
            <mxPoint as="offset" />
          </mxGeometry>
        </mxCell>
        <mxCell id="WZqHGrQ1ZvMK2-V5_D06-40" style="edgeStyle=orthogonalEdgeStyle;rounded=0;orthogonalLoop=1;jettySize=auto;html=1;exitX=0.5;exitY=1;exitDx=0;exitDy=0;strokeWidth=2;fontSize=12;" edge="1" parent="1" source="WZqHGrQ1ZvMK2-V5_D06-37" target="WZqHGrQ1ZvMK2-V5_D06-39">
          <mxGeometry relative="1" as="geometry" />
        </mxCell>
        <mxCell id="WZqHGrQ1ZvMK2-V5_D06-41" value="&lt;font style=&quot;font-size: 14px;&quot;&gt;requires&lt;/font&gt;" style="edgeLabel;html=1;align=center;verticalAlign=middle;resizable=0;points=[];" vertex="1" connectable="0" parent="WZqHGrQ1ZvMK2-V5_D06-40">
          <mxGeometry x="-0.08" y="-1" relative="1" as="geometry">
            <mxPoint as="offset" />
          </mxGeometry>
        </mxCell>
        <mxCell id="WZqHGrQ1ZvMK2-V5_D06-105" style="edgeStyle=orthogonalEdgeStyle;rounded=1;orthogonalLoop=1;jettySize=auto;html=1;exitX=1;exitY=0.5;exitDx=0;exitDy=0;entryX=0.5;entryY=0;entryDx=0;entryDy=0;jumpStyle=arc;strokeWidth=2;fontSize=12;" edge="1" parent="1">
          <mxGeometry relative="1" as="geometry">
            <mxPoint x="590" y="550" as="sourcePoint" />
            <mxPoint x="1090" y="1039.9999999999998" as="targetPoint" />
          </mxGeometry>
        </mxCell>
        <mxCell id="WZqHGrQ1ZvMK2-V5_D06-107" value="&lt;font style=&quot;font-size: 14px;&quot;&gt;governedBy&lt;/font&gt;" style="edgeLabel;html=1;align=center;verticalAlign=middle;resizable=0;points=[];" vertex="1" connectable="0" parent="WZqHGrQ1ZvMK2-V5_D06-105">
          <mxGeometry x="-0.271" y="-3" relative="1" as="geometry">
            <mxPoint as="offset" />
          </mxGeometry>
        </mxCell>
        <mxCell id="WZqHGrQ1ZvMK2-V5_D06-37" value="Principles" style="ellipse;whiteSpace=wrap;html=1;strokeWidth=2;fillColor=#dae8fc;strokeColor=#6c8ebf;" vertex="1" parent="1">
          <mxGeometry x="470" y="520" width="120" height="60" as="geometry" />
        </mxCell>
        <mxCell id="WZqHGrQ1ZvMK2-V5_D06-42" style="edgeStyle=orthogonalEdgeStyle;rounded=1;orthogonalLoop=1;jettySize=auto;html=1;exitX=0;exitY=0.5;exitDx=0;exitDy=0;entryX=0.5;entryY=1;entryDx=0;entryDy=0;strokeWidth=2;fontSize=12;" edge="1" parent="1" source="WZqHGrQ1ZvMK2-V5_D06-39" target="WZqHGrQ1ZvMK2-V5_D06-17">
          <mxGeometry relative="1" as="geometry" />
        </mxCell>
        <mxCell id="WZqHGrQ1ZvMK2-V5_D06-43" value="&lt;font style=&quot;font-size: 14px;&quot;&gt;involvesArticles&lt;/font&gt;" style="edgeLabel;html=1;align=center;verticalAlign=middle;resizable=0;points=[];" vertex="1" connectable="0" parent="WZqHGrQ1ZvMK2-V5_D06-42">
          <mxGeometry x="-0.2098" relative="1" as="geometry">
            <mxPoint as="offset" />
          </mxGeometry>
        </mxCell>
        <mxCell id="WZqHGrQ1ZvMK2-V5_D06-48" style="edgeStyle=orthogonalEdgeStyle;rounded=1;orthogonalLoop=1;jettySize=auto;html=1;exitX=0.5;exitY=1;exitDx=0;exitDy=0;entryX=1;entryY=0.5;entryDx=0;entryDy=0;strokeWidth=2;fontSize=12;" edge="1" parent="1" source="WZqHGrQ1ZvMK2-V5_D06-39" target="WZqHGrQ1ZvMK2-V5_D06-44">
          <mxGeometry relative="1" as="geometry" />
        </mxCell>
        <mxCell id="WZqHGrQ1ZvMK2-V5_D06-49" value="&lt;font style=&quot;font-size: 14px;&quot;&gt;linkedToFramework&lt;/font&gt;" style="edgeLabel;html=1;align=center;verticalAlign=middle;resizable=0;points=[];" vertex="1" connectable="0" parent="WZqHGrQ1ZvMK2-V5_D06-48">
          <mxGeometry x="-0.1172" relative="1" as="geometry">
            <mxPoint as="offset" />
          </mxGeometry>
        </mxCell>
        <mxCell id="WZqHGrQ1ZvMK2-V5_D06-50" style="edgeStyle=orthogonalEdgeStyle;rounded=0;orthogonalLoop=1;jettySize=auto;html=1;exitX=1;exitY=0.5;exitDx=0;exitDy=0;strokeWidth=2;fontSize=12;" edge="1" parent="1" source="WZqHGrQ1ZvMK2-V5_D06-39">
          <mxGeometry relative="1" as="geometry">
            <mxPoint x="800" y="710" as="targetPoint" />
          </mxGeometry>
        </mxCell>
        <mxCell id="WZqHGrQ1ZvMK2-V5_D06-52" value="&lt;font style=&quot;font-size: 14px;&quot;&gt;inMaturityLevel&lt;/font&gt;" style="edgeLabel;html=1;align=center;verticalAlign=middle;resizable=0;points=[];" vertex="1" connectable="0" parent="WZqHGrQ1ZvMK2-V5_D06-50">
          <mxGeometry x="-0.1734" relative="1" as="geometry">
            <mxPoint as="offset" />
          </mxGeometry>
        </mxCell>
        <mxCell id="WZqHGrQ1ZvMK2-V5_D06-96" style="edgeStyle=orthogonalEdgeStyle;rounded=1;orthogonalLoop=1;jettySize=auto;html=1;exitX=1;exitY=1;exitDx=0;exitDy=0;entryX=0;entryY=0.5;entryDx=0;entryDy=0;strokeWidth=2;fontSize=12;" edge="1" parent="1" source="WZqHGrQ1ZvMK2-V5_D06-39" target="WZqHGrQ1ZvMK2-V5_D06-94">
          <mxGeometry relative="1" as="geometry" />
        </mxCell>
        <mxCell id="WZqHGrQ1ZvMK2-V5_D06-97" value="&lt;font style=&quot;font-size: 14px;&quot;&gt;needsTechnicalRequirement&lt;/font&gt;" style="edgeLabel;html=1;align=center;verticalAlign=middle;resizable=0;points=[];" vertex="1" connectable="0" parent="WZqHGrQ1ZvMK2-V5_D06-96">
          <mxGeometry x="0.049" y="-6" relative="1" as="geometry">
            <mxPoint as="offset" />
          </mxGeometry>
        </mxCell>
        <mxCell id="WZqHGrQ1ZvMK2-V5_D06-115" style="edgeStyle=orthogonalEdgeStyle;rounded=1;orthogonalLoop=1;jettySize=auto;html=1;exitX=0;exitY=1;exitDx=0;exitDy=0;entryX=0;entryY=0.5;entryDx=0;entryDy=0;jumpStyle=arc;strokeWidth=2;fontSize=12;" edge="1" parent="1" source="WZqHGrQ1ZvMK2-V5_D06-39" target="WZqHGrQ1ZvMK2-V5_D06-111">
          <mxGeometry relative="1" as="geometry">
            <Array as="points">
              <mxPoint x="-70" y="731" />
              <mxPoint x="-70" y="1070" />
            </Array>
          </mxGeometry>
        </mxCell>
        <mxCell id="WZqHGrQ1ZvMK2-V5_D06-116" value="&lt;font style=&quot;font-size: 14px;&quot;&gt;linkedToProcess&lt;/font&gt;" style="edgeLabel;html=1;align=center;verticalAlign=middle;resizable=0;points=[];" vertex="1" connectable="0" parent="WZqHGrQ1ZvMK2-V5_D06-115">
          <mxGeometry x="0.6232" y="3" relative="1" as="geometry">
            <mxPoint as="offset" />
          </mxGeometry>
        </mxCell>
        <mxCell id="WZqHGrQ1ZvMK2-V5_D06-39" value="Capabilities" style="ellipse;whiteSpace=wrap;html=1;strokeWidth=2;fillColor=#dae8fc;strokeColor=#6c8ebf;" vertex="1" parent="1">
          <mxGeometry x="470" y="680" width="120" height="60" as="geometry" />
        </mxCell>
        <mxCell id="WZqHGrQ1ZvMK2-V5_D06-44" value="Framework" style="ellipse;whiteSpace=wrap;html=1;strokeWidth=2;fillColor=#dae8fc;strokeColor=#6c8ebf;" vertex="1" parent="1">
          <mxGeometry x="170" y="760" width="120" height="60" as="geometry" />
        </mxCell>
        <mxCell id="WZqHGrQ1ZvMK2-V5_D06-45" value="ISO" style="ellipse;whiteSpace=wrap;html=1;strokeWidth=2;fillColor=#dae8fc;strokeColor=#6c8ebf;" vertex="1" parent="1">
          <mxGeometry x="170" y="840" width="120" height="60" as="geometry" />
        </mxCell>
        <mxCell id="WZqHGrQ1ZvMK2-V5_D06-46" style="edgeStyle=orthogonalEdgeStyle;rounded=1;orthogonalLoop=1;jettySize=auto;html=1;exitX=0.5;exitY=1;exitDx=0;exitDy=0;entryX=1;entryY=0.5;entryDx=0;entryDy=0;strokeWidth=2;fontSize=12;" edge="1" parent="1" source="WZqHGrQ1ZvMK2-V5_D06-39" target="WZqHGrQ1ZvMK2-V5_D06-45">
          <mxGeometry relative="1" as="geometry">
            <mxPoint x="330" y="870" as="targetPoint" />
            <Array as="points">
              <mxPoint x="530" y="870" />
            </Array>
          </mxGeometry>
        </mxCell>
        <mxCell id="WZqHGrQ1ZvMK2-V5_D06-47" value="&lt;font style=&quot;font-size: 14px;&quot;&gt;practicesDefinedInISO&lt;/font&gt;" style="edgeLabel;html=1;align=center;verticalAlign=middle;resizable=0;points=[];" vertex="1" connectable="0" parent="WZqHGrQ1ZvMK2-V5_D06-46">
          <mxGeometry x="-0.622" y="2" relative="1" as="geometry">
            <mxPoint as="offset" />
          </mxGeometry>
        </mxCell>
        <mxCell id="WZqHGrQ1ZvMK2-V5_D06-53" style="edgeStyle=orthogonalEdgeStyle;rounded=1;orthogonalLoop=1;jettySize=auto;html=1;exitX=0.5;exitY=0;exitDx=0;exitDy=0;entryX=1;entryY=1;entryDx=0;entryDy=0;strokeWidth=2;fontSize=12;" edge="1" parent="1" source="WZqHGrQ1ZvMK2-V5_D06-51" target="WZqHGrQ1ZvMK2-V5_D06-37">
          <mxGeometry relative="1" as="geometry" />
        </mxCell>
        <mxCell id="WZqHGrQ1ZvMK2-V5_D06-54" value="&lt;font style=&quot;font-size: 14px;&quot;&gt;hasGoal&lt;/font&gt;" style="edgeLabel;html=1;align=center;verticalAlign=middle;resizable=0;points=[];" vertex="1" connectable="0" parent="WZqHGrQ1ZvMK2-V5_D06-53">
          <mxGeometry x="-0.66" y="2" relative="1" as="geometry">
            <mxPoint as="offset" />
          </mxGeometry>
        </mxCell>
        <mxCell id="WZqHGrQ1ZvMK2-V5_D06-51" value="Maturity" style="ellipse;whiteSpace=wrap;html=1;strokeWidth=2;fillColor=#dae8fc;strokeColor=#6c8ebf;" vertex="1" parent="1">
          <mxGeometry x="800" y="680" width="120" height="60" as="geometry" />
        </mxCell>
        <mxCell id="WZqHGrQ1ZvMK2-V5_D06-98" style="edgeStyle=orthogonalEdgeStyle;rounded=1;orthogonalLoop=1;jettySize=auto;html=1;exitX=0.5;exitY=1;exitDx=0;exitDy=0;entryX=1;entryY=0.5;entryDx=0;entryDy=0;jumpStyle=arc;strokeWidth=2;fontSize=12;" edge="1" parent="1" source="WZqHGrQ1ZvMK2-V5_D06-55" target="WZqHGrQ1ZvMK2-V5_D06-94">
          <mxGeometry relative="1" as="geometry" />
        </mxCell>
        <mxCell id="WZqHGrQ1ZvMK2-V5_D06-99" value="&lt;font style=&quot;font-size: 14px;&quot;&gt;responsibleFor&lt;/font&gt;" style="edgeLabel;html=1;align=center;verticalAlign=middle;resizable=0;points=[];" vertex="1" connectable="0" parent="WZqHGrQ1ZvMK2-V5_D06-98">
          <mxGeometry x="0.32" relative="1" as="geometry">
            <mxPoint as="offset" />
          </mxGeometry>
        </mxCell>
        <mxCell id="WZqHGrQ1ZvMK2-V5_D06-55" value="OrganizationUnit" style="ellipse;whiteSpace=wrap;html=1;strokeWidth=2;fillColor=#dae8fc;strokeColor=#6c8ebf;" vertex="1" parent="1">
          <mxGeometry x="1220" y="680" width="120" height="60" as="geometry" />
        </mxCell>
        <mxCell id="WZqHGrQ1ZvMK2-V5_D06-83" style="edgeStyle=orthogonalEdgeStyle;rounded=1;orthogonalLoop=1;jettySize=auto;html=1;exitX=0;exitY=0.5;exitDx=0;exitDy=0;entryX=1;entryY=0.5;entryDx=0;entryDy=0;dashed=1;dashPattern=8 8;strokeWidth=2;" edge="1" parent="1" source="WZqHGrQ1ZvMK2-V5_D06-58" target="WZqHGrQ1ZvMK2-V5_D06-55">
          <mxGeometry relative="1" as="geometry" />
        </mxCell>
        <mxCell id="WZqHGrQ1ZvMK2-V5_D06-58" value="Risk_And_Compliance" style="ellipse;whiteSpace=wrap;html=1;strokeWidth=2;fillColor=#dae8fc;strokeColor=#6c8ebf;" vertex="1" parent="1">
          <mxGeometry x="1460" y="1200" width="170" height="60" as="geometry" />
        </mxCell>
        <mxCell id="WZqHGrQ1ZvMK2-V5_D06-85" style="edgeStyle=orthogonalEdgeStyle;rounded=1;orthogonalLoop=1;jettySize=auto;html=1;exitX=0;exitY=0.5;exitDx=0;exitDy=0;entryX=1;entryY=0.5;entryDx=0;entryDy=0;dashed=1;dashPattern=8 8;strokeWidth=2;" edge="1" parent="1" source="WZqHGrQ1ZvMK2-V5_D06-59" target="WZqHGrQ1ZvMK2-V5_D06-55">
          <mxGeometry relative="1" as="geometry" />
        </mxCell>
        <mxCell id="WZqHGrQ1ZvMK2-V5_D06-59" value="Records_Management" style="ellipse;whiteSpace=wrap;html=1;strokeWidth=2;fillColor=#dae8fc;strokeColor=#6c8ebf;" vertex="1" parent="1">
          <mxGeometry x="1460" y="1010" width="150" height="60" as="geometry" />
        </mxCell>
        <mxCell id="WZqHGrQ1ZvMK2-V5_D06-89" style="edgeStyle=orthogonalEdgeStyle;rounded=1;orthogonalLoop=1;jettySize=auto;html=1;exitX=0;exitY=0.5;exitDx=0;exitDy=0;entryX=1;entryY=0.5;entryDx=0;entryDy=0;dashed=1;dashPattern=8 8;strokeWidth=2;" edge="1" parent="1" source="WZqHGrQ1ZvMK2-V5_D06-60" target="WZqHGrQ1ZvMK2-V5_D06-55">
          <mxGeometry relative="1" as="geometry" />
        </mxCell>
        <mxCell id="WZqHGrQ1ZvMK2-V5_D06-60" value="IT" style="ellipse;whiteSpace=wrap;html=1;strokeWidth=2;fillColor=#dae8fc;strokeColor=#6c8ebf;" vertex="1" parent="1">
          <mxGeometry x="1460" y="640" width="120" height="60" as="geometry" />
        </mxCell>
        <mxCell id="WZqHGrQ1ZvMK2-V5_D06-91" style="edgeStyle=orthogonalEdgeStyle;rounded=1;orthogonalLoop=1;jettySize=auto;html=1;exitX=0;exitY=0.5;exitDx=0;exitDy=0;entryX=1;entryY=0.5;entryDx=0;entryDy=0;dashed=1;dashPattern=8 8;strokeWidth=2;" edge="1" parent="1" source="WZqHGrQ1ZvMK2-V5_D06-61" target="WZqHGrQ1ZvMK2-V5_D06-55">
          <mxGeometry relative="1" as="geometry" />
        </mxCell>
        <mxCell id="WZqHGrQ1ZvMK2-V5_D06-61" value="Change_Management" style="ellipse;whiteSpace=wrap;html=1;strokeWidth=2;fillColor=#dae8fc;strokeColor=#6c8ebf;" vertex="1" parent="1">
          <mxGeometry x="1460" y="554.5" width="140" height="60" as="geometry" />
        </mxCell>
        <mxCell id="WZqHGrQ1ZvMK2-V5_D06-93" style="edgeStyle=orthogonalEdgeStyle;rounded=1;orthogonalLoop=1;jettySize=auto;html=1;exitX=0;exitY=0.5;exitDx=0;exitDy=0;entryX=1;entryY=0.5;entryDx=0;entryDy=0;dashed=1;dashPattern=8 8;strokeWidth=2;" edge="1" parent="1" source="WZqHGrQ1ZvMK2-V5_D06-62" target="WZqHGrQ1ZvMK2-V5_D06-55">
          <mxGeometry relative="1" as="geometry" />
        </mxCell>
        <mxCell id="WZqHGrQ1ZvMK2-V5_D06-62" value="Business_Unit" style="ellipse;whiteSpace=wrap;html=1;strokeWidth=2;fillColor=#dae8fc;strokeColor=#6c8ebf;" vertex="1" parent="1">
          <mxGeometry x="1460" y="470" width="120" height="60" as="geometry" />
        </mxCell>
        <mxCell id="WZqHGrQ1ZvMK2-V5_D06-87" style="edgeStyle=orthogonalEdgeStyle;rounded=1;orthogonalLoop=1;jettySize=auto;html=1;exitX=0;exitY=0.5;exitDx=0;exitDy=0;entryX=1;entryY=0.5;entryDx=0;entryDy=0;dashed=1;dashPattern=8 8;strokeWidth=2;" edge="1" parent="1" source="WZqHGrQ1ZvMK2-V5_D06-63" target="WZqHGrQ1ZvMK2-V5_D06-55">
          <mxGeometry relative="1" as="geometry" />
        </mxCell>
        <mxCell id="WZqHGrQ1ZvMK2-V5_D06-63" value="Legal" style="ellipse;whiteSpace=wrap;html=1;strokeWidth=2;fillColor=#dae8fc;strokeColor=#6c8ebf;" vertex="1" parent="1">
          <mxGeometry x="1460" y="720" width="120" height="60" as="geometry" />
        </mxCell>
        <mxCell id="WZqHGrQ1ZvMK2-V5_D06-86" style="edgeStyle=orthogonalEdgeStyle;rounded=1;orthogonalLoop=1;jettySize=auto;html=1;exitX=0;exitY=0.5;exitDx=0;exitDy=0;entryX=1;entryY=0.5;entryDx=0;entryDy=0;dashed=1;dashPattern=8 8;strokeWidth=2;" edge="1" parent="1" source="WZqHGrQ1ZvMK2-V5_D06-64" target="WZqHGrQ1ZvMK2-V5_D06-55">
          <mxGeometry relative="1" as="geometry" />
        </mxCell>
        <mxCell id="WZqHGrQ1ZvMK2-V5_D06-64" value="Privacy_And_Security" style="ellipse;whiteSpace=wrap;html=1;strokeWidth=2;fillColor=#dae8fc;strokeColor=#6c8ebf;" vertex="1" parent="1">
          <mxGeometry x="1460" y="800" width="150" height="60" as="geometry" />
        </mxCell>
        <mxCell id="WZqHGrQ1ZvMK2-V5_D06-72" style="edgeStyle=orthogonalEdgeStyle;rounded=1;orthogonalLoop=1;jettySize=auto;html=1;exitX=0;exitY=0.5;exitDx=0;exitDy=0;entryX=1;entryY=0.5;entryDx=0;entryDy=0;dashed=1;dashPattern=8 8;strokeWidth=2;" edge="1" parent="1" source="WZqHGrQ1ZvMK2-V5_D06-65" target="WZqHGrQ1ZvMK2-V5_D06-64">
          <mxGeometry relative="1" as="geometry" />
        </mxCell>
        <mxCell id="WZqHGrQ1ZvMK2-V5_D06-65" value="Access_Control" style="ellipse;whiteSpace=wrap;html=1;strokeWidth=2;fillColor=#dae8fc;strokeColor=#6c8ebf;" vertex="1" parent="1">
          <mxGeometry x="1740" y="730" width="150" height="60" as="geometry" />
        </mxCell>
        <mxCell id="WZqHGrQ1ZvMK2-V5_D06-73" style="edgeStyle=orthogonalEdgeStyle;rounded=1;orthogonalLoop=1;jettySize=auto;html=1;exitX=0;exitY=0.5;exitDx=0;exitDy=0;dashed=1;dashPattern=8 8;entryX=1;entryY=0.5;entryDx=0;entryDy=0;strokeWidth=2;" edge="1" parent="1" source="WZqHGrQ1ZvMK2-V5_D06-66" target="WZqHGrQ1ZvMK2-V5_D06-64">
          <mxGeometry relative="1" as="geometry">
            <mxPoint x="1620" y="830" as="targetPoint" />
          </mxGeometry>
        </mxCell>
        <mxCell id="WZqHGrQ1ZvMK2-V5_D06-66" value="Audit" style="ellipse;whiteSpace=wrap;html=1;strokeWidth=2;fillColor=#dae8fc;strokeColor=#6c8ebf;" vertex="1" parent="1">
          <mxGeometry x="1740" y="800" width="150" height="60" as="geometry" />
        </mxCell>
        <mxCell id="WZqHGrQ1ZvMK2-V5_D06-75" style="edgeStyle=orthogonalEdgeStyle;rounded=1;orthogonalLoop=1;jettySize=auto;html=1;exitX=0;exitY=0.5;exitDx=0;exitDy=0;entryX=1;entryY=0.5;entryDx=0;entryDy=0;dashed=1;dashPattern=8 8;strokeWidth=2;" edge="1" parent="1" source="WZqHGrQ1ZvMK2-V5_D06-67" target="WZqHGrQ1ZvMK2-V5_D06-64">
          <mxGeometry relative="1" as="geometry" />
        </mxCell>
        <mxCell id="WZqHGrQ1ZvMK2-V5_D06-67" value="Monitoring" style="ellipse;whiteSpace=wrap;html=1;strokeWidth=2;fillColor=#dae8fc;strokeColor=#6c8ebf;" vertex="1" parent="1">
          <mxGeometry x="1740" y="870" width="150" height="60" as="geometry" />
        </mxCell>
        <mxCell id="WZqHGrQ1ZvMK2-V5_D06-76" style="edgeStyle=orthogonalEdgeStyle;rounded=1;orthogonalLoop=1;jettySize=auto;html=1;exitX=0;exitY=0.5;exitDx=0;exitDy=0;entryX=1;entryY=0.5;entryDx=0;entryDy=0;dashed=1;dashPattern=8 8;strokeWidth=2;" edge="1" parent="1" source="WZqHGrQ1ZvMK2-V5_D06-68" target="WZqHGrQ1ZvMK2-V5_D06-59">
          <mxGeometry relative="1" as="geometry" />
        </mxCell>
        <mxCell id="WZqHGrQ1ZvMK2-V5_D06-68" value="Electornic_Records_Management" style="ellipse;whiteSpace=wrap;html=1;strokeWidth=2;fillColor=#dae8fc;strokeColor=#6c8ebf;" vertex="1" parent="1">
          <mxGeometry x="1740" y="980" width="210" height="60" as="geometry" />
        </mxCell>
        <mxCell id="WZqHGrQ1ZvMK2-V5_D06-77" style="edgeStyle=orthogonalEdgeStyle;rounded=1;orthogonalLoop=1;jettySize=auto;html=1;exitX=0;exitY=0.5;exitDx=0;exitDy=0;entryX=1;entryY=0.5;entryDx=0;entryDy=0;dashed=1;dashPattern=8 8;strokeWidth=2;" edge="1" parent="1" source="WZqHGrQ1ZvMK2-V5_D06-69" target="WZqHGrQ1ZvMK2-V5_D06-59">
          <mxGeometry relative="1" as="geometry" />
        </mxCell>
        <mxCell id="WZqHGrQ1ZvMK2-V5_D06-69" value="Records_And_Information_Management" style="ellipse;whiteSpace=wrap;html=1;strokeWidth=2;fillColor=#dae8fc;strokeColor=#6c8ebf;" vertex="1" parent="1">
          <mxGeometry x="1740" y="1050" width="240" height="60" as="geometry" />
        </mxCell>
        <mxCell id="WZqHGrQ1ZvMK2-V5_D06-78" style="edgeStyle=orthogonalEdgeStyle;rounded=1;orthogonalLoop=1;jettySize=auto;html=1;exitX=0;exitY=0.5;exitDx=0;exitDy=0;entryX=1;entryY=0.5;entryDx=0;entryDy=0;dashed=1;dashPattern=8 8;strokeWidth=2;" edge="1" parent="1" source="WZqHGrQ1ZvMK2-V5_D06-70" target="WZqHGrQ1ZvMK2-V5_D06-58">
          <mxGeometry relative="1" as="geometry" />
        </mxCell>
        <mxCell id="WZqHGrQ1ZvMK2-V5_D06-70" value="Enterprise_Risk_Management" style="ellipse;whiteSpace=wrap;html=1;strokeWidth=2;fillColor=#dae8fc;strokeColor=#6c8ebf;" vertex="1" parent="1">
          <mxGeometry x="1740" y="1169" width="210" height="60" as="geometry" />
        </mxCell>
        <mxCell id="WZqHGrQ1ZvMK2-V5_D06-82" style="edgeStyle=orthogonalEdgeStyle;rounded=1;orthogonalLoop=1;jettySize=auto;html=1;entryX=1;entryY=0.5;entryDx=0;entryDy=0;dashed=1;dashPattern=8 8;strokeWidth=2;" edge="1" parent="1" source="WZqHGrQ1ZvMK2-V5_D06-71" target="WZqHGrQ1ZvMK2-V5_D06-58">
          <mxGeometry relative="1" as="geometry" />
        </mxCell>
        <mxCell id="WZqHGrQ1ZvMK2-V5_D06-71" value="Information_Risk_Management" style="ellipse;whiteSpace=wrap;html=1;strokeWidth=2;fillColor=#dae8fc;strokeColor=#6c8ebf;" vertex="1" parent="1">
          <mxGeometry x="1740" y="1240" width="210" height="60" as="geometry" />
        </mxCell>
        <mxCell id="WZqHGrQ1ZvMK2-V5_D06-100" style="edgeStyle=orthogonalEdgeStyle;rounded=0;orthogonalLoop=1;jettySize=auto;html=1;exitX=0.5;exitY=1;exitDx=0;exitDy=0;entryX=0.5;entryY=1;entryDx=0;entryDy=0;jumpStyle=arc;strokeWidth=2;fontSize=12;" edge="1" parent="1" source="WZqHGrQ1ZvMK2-V5_D06-94" target="WZqHGrQ1ZvMK2-V5_D06-17">
          <mxGeometry relative="1" as="geometry">
            <Array as="points">
              <mxPoint x="950" y="970" />
              <mxPoint x="10" y="970" />
            </Array>
          </mxGeometry>
        </mxCell>
        <mxCell id="WZqHGrQ1ZvMK2-V5_D06-101" value="&lt;font style=&quot;font-size: 14px;&quot;&gt;involvesArticles&lt;/font&gt;" style="edgeLabel;html=1;align=center;verticalAlign=middle;resizable=0;points=[];" vertex="1" connectable="0" parent="WZqHGrQ1ZvMK2-V5_D06-100">
          <mxGeometry x="-0.347" y="4" relative="1" as="geometry">
            <mxPoint as="offset" />
          </mxGeometry>
        </mxCell>
        <mxCell id="WZqHGrQ1ZvMK2-V5_D06-102" style="edgeStyle=orthogonalEdgeStyle;rounded=1;orthogonalLoop=1;jettySize=auto;html=1;exitX=0;exitY=1;exitDx=0;exitDy=0;entryX=1;entryY=0.5;entryDx=0;entryDy=0;strokeWidth=2;fontSize=12;" edge="1" parent="1" source="WZqHGrQ1ZvMK2-V5_D06-94" target="WZqHGrQ1ZvMK2-V5_D06-45">
          <mxGeometry relative="1" as="geometry" />
        </mxCell>
        <mxCell id="WZqHGrQ1ZvMK2-V5_D06-103" value="&lt;font style=&quot;font-size: 14px;&quot;&gt;practicesDefinedInISO&lt;/font&gt;" style="edgeLabel;html=1;align=center;verticalAlign=middle;resizable=0;points=[];" vertex="1" connectable="0" parent="WZqHGrQ1ZvMK2-V5_D06-102">
          <mxGeometry x="-0.2061" y="-3" relative="1" as="geometry">
            <mxPoint as="offset" />
          </mxGeometry>
        </mxCell>
        <mxCell id="WZqHGrQ1ZvMK2-V5_D06-94" value="Tool" style="ellipse;whiteSpace=wrap;html=1;strokeWidth=2;fillColor=#dae8fc;strokeColor=#6c8ebf;" vertex="1" parent="1">
          <mxGeometry x="890" y="840" width="120" height="60" as="geometry" />
        </mxCell>
        <mxCell id="WZqHGrQ1ZvMK2-V5_D06-137" style="edgeStyle=orthogonalEdgeStyle;rounded=1;orthogonalLoop=1;jettySize=auto;html=1;exitX=0.5;exitY=1;exitDx=0;exitDy=0;entryX=1;entryY=0.5;entryDx=0;entryDy=0;strokeWidth=2;fontSize=12;" edge="1" parent="1" source="WZqHGrQ1ZvMK2-V5_D06-104" target="WZqHGrQ1ZvMK2-V5_D06-136">
          <mxGeometry relative="1" as="geometry" />
        </mxCell>
        <mxCell id="WZqHGrQ1ZvMK2-V5_D06-141" value="&lt;font style=&quot;font-size: 14px;&quot;&gt;isStoredIn&lt;/font&gt;" style="edgeLabel;html=1;align=center;verticalAlign=middle;resizable=0;points=[];fontSize=11;fontFamily=Helvetica;fontColor=default;" vertex="1" connectable="0" parent="WZqHGrQ1ZvMK2-V5_D06-137">
          <mxGeometry x="-0.5454" y="1" relative="1" as="geometry">
            <mxPoint as="offset" />
          </mxGeometry>
        </mxCell>
        <mxCell id="WZqHGrQ1ZvMK2-V5_D06-104" value="Data" style="ellipse;whiteSpace=wrap;html=1;strokeWidth=2;fillColor=#dae8fc;strokeColor=#6c8ebf;" vertex="1" parent="1">
          <mxGeometry x="1030" y="1040" width="120" height="60" as="geometry" />
        </mxCell>
        <mxCell id="WZqHGrQ1ZvMK2-V5_D06-109" style="edgeStyle=orthogonalEdgeStyle;rounded=0;orthogonalLoop=1;jettySize=auto;html=1;exitX=1;exitY=0.5;exitDx=0;exitDy=0;entryX=0;entryY=0.5;entryDx=0;entryDy=0;strokeWidth=2;" edge="1" parent="1" source="WZqHGrQ1ZvMK2-V5_D06-108" target="WZqHGrQ1ZvMK2-V5_D06-104">
          <mxGeometry relative="1" as="geometry" />
        </mxCell>
        <mxCell id="WZqHGrQ1ZvMK2-V5_D06-110" value="&lt;font style=&quot;font-size: 14px;&quot;&gt;governs&lt;/font&gt;" style="edgeLabel;html=1;align=center;verticalAlign=middle;resizable=0;points=[];" vertex="1" connectable="0" parent="WZqHGrQ1ZvMK2-V5_D06-109">
          <mxGeometry x="0.0232" y="-2" relative="1" as="geometry">
            <mxPoint as="offset" />
          </mxGeometry>
        </mxCell>
        <mxCell id="WZqHGrQ1ZvMK2-V5_D06-138" style="edgeStyle=orthogonalEdgeStyle;rounded=1;orthogonalLoop=1;jettySize=auto;html=1;exitX=0.5;exitY=1;exitDx=0;exitDy=0;entryX=0;entryY=0.5;entryDx=0;entryDy=0;strokeWidth=2;fontSize=12;" edge="1" parent="1" source="WZqHGrQ1ZvMK2-V5_D06-108" target="WZqHGrQ1ZvMK2-V5_D06-136">
          <mxGeometry relative="1" as="geometry" />
        </mxCell>
        <mxCell id="WZqHGrQ1ZvMK2-V5_D06-140" value="&lt;font style=&quot;font-size: 14px;&quot;&gt;isStoredIn&lt;/font&gt;" style="edgeLabel;html=1;align=center;verticalAlign=middle;resizable=0;points=[];fontSize=11;fontFamily=Helvetica;fontColor=default;" vertex="1" connectable="0" parent="WZqHGrQ1ZvMK2-V5_D06-138">
          <mxGeometry x="-0.4665" y="-1" relative="1" as="geometry">
            <mxPoint as="offset" />
          </mxGeometry>
        </mxCell>
        <mxCell id="WZqHGrQ1ZvMK2-V5_D06-108" value="Record" style="ellipse;whiteSpace=wrap;html=1;strokeWidth=2;fillColor=#dae8fc;strokeColor=#6c8ebf;" vertex="1" parent="1">
          <mxGeometry x="750" y="1040" width="120" height="60" as="geometry" />
        </mxCell>
        <mxCell id="WZqHGrQ1ZvMK2-V5_D06-112" style="edgeStyle=orthogonalEdgeStyle;rounded=0;orthogonalLoop=1;jettySize=auto;html=1;exitX=1;exitY=0.5;exitDx=0;exitDy=0;entryX=0;entryY=0.5;entryDx=0;entryDy=0;strokeWidth=2;fontSize=12;" edge="1" parent="1" source="WZqHGrQ1ZvMK2-V5_D06-111" target="WZqHGrQ1ZvMK2-V5_D06-108">
          <mxGeometry relative="1" as="geometry" />
        </mxCell>
        <mxCell id="WZqHGrQ1ZvMK2-V5_D06-113" value="&lt;font style=&quot;font-size: 14px;&quot;&gt;creates&lt;/font&gt;" style="edgeLabel;html=1;align=center;verticalAlign=middle;resizable=0;points=[];" vertex="1" connectable="0" parent="WZqHGrQ1ZvMK2-V5_D06-112">
          <mxGeometry x="-0.0143" relative="1" as="geometry">
            <mxPoint as="offset" />
          </mxGeometry>
        </mxCell>
        <mxCell id="WZqHGrQ1ZvMK2-V5_D06-111" value="Process" style="ellipse;whiteSpace=wrap;html=1;strokeWidth=2;fillColor=#dae8fc;strokeColor=#6c8ebf;" vertex="1" parent="1">
          <mxGeometry x="490" y="1040" width="120" height="60" as="geometry" />
        </mxCell>
        <mxCell id="WZqHGrQ1ZvMK2-V5_D06-143" style="edgeStyle=orthogonalEdgeStyle;shape=connector;rounded=1;orthogonalLoop=1;jettySize=auto;html=1;exitX=0;exitY=1;exitDx=0;exitDy=0;entryX=0.5;entryY=0;entryDx=0;entryDy=0;labelBackgroundColor=default;strokeColor=default;strokeWidth=2;align=center;verticalAlign=middle;fontFamily=Helvetica;fontSize=12;fontColor=default;endArrow=classic;" edge="1" parent="1" source="WZqHGrQ1ZvMK2-V5_D06-136" target="WZqHGrQ1ZvMK2-V5_D06-142">
          <mxGeometry relative="1" as="geometry" />
        </mxCell>
        <mxCell id="WZqHGrQ1ZvMK2-V5_D06-144" value="&lt;font style=&quot;font-size: 14px;&quot;&gt;uses&lt;/font&gt;" style="edgeLabel;html=1;align=center;verticalAlign=middle;resizable=0;points=[];fontSize=11;fontFamily=Helvetica;fontColor=default;" vertex="1" connectable="0" parent="WZqHGrQ1ZvMK2-V5_D06-143">
          <mxGeometry x="-0.0751" y="-2" relative="1" as="geometry">
            <mxPoint as="offset" />
          </mxGeometry>
        </mxCell>
        <mxCell id="WZqHGrQ1ZvMK2-V5_D06-136" value="Repository" style="ellipse;whiteSpace=wrap;html=1;strokeWidth=2;fillColor=#f8cecc;strokeColor=#b85450;" vertex="1" parent="1">
          <mxGeometry x="890" y="1210" width="120" height="60" as="geometry" />
        </mxCell>
        <mxCell id="WZqHGrQ1ZvMK2-V5_D06-142" value="Database" style="ellipse;whiteSpace=wrap;html=1;strokeWidth=2;fillColor=#f8cecc;strokeColor=#b85450;" vertex="1" parent="1">
          <mxGeometry x="1170" y="1360" width="120" height="60" as="geometry" />
        </mxCell>
        <mxCell id="WZqHGrQ1ZvMK2-V5_D06-148" style="edgeStyle=orthogonalEdgeStyle;shape=connector;rounded=1;orthogonalLoop=1;jettySize=auto;html=1;exitX=1;exitY=0.5;exitDx=0;exitDy=0;labelBackgroundColor=default;strokeColor=default;strokeWidth=2;align=center;verticalAlign=middle;fontFamily=Helvetica;fontSize=11;fontColor=default;endArrow=classic;dashed=1;dashPattern=8 8;entryX=0.5;entryY=1;entryDx=0;entryDy=0;" edge="1" parent="1" source="WZqHGrQ1ZvMK2-V5_D06-145" target="WZqHGrQ1ZvMK2-V5_D06-136">
          <mxGeometry relative="1" as="geometry">
            <mxPoint x="950" y="1260" as="targetPoint" />
          </mxGeometry>
        </mxCell>
        <mxCell id="WZqHGrQ1ZvMK2-V5_D06-150" style="edgeStyle=orthogonalEdgeStyle;shape=connector;rounded=1;orthogonalLoop=1;jettySize=auto;html=1;exitX=0;exitY=0.5;exitDx=0;exitDy=0;entryX=1;entryY=0.5;entryDx=0;entryDy=0;labelBackgroundColor=default;strokeColor=default;strokeWidth=2;align=center;verticalAlign=middle;fontFamily=Helvetica;fontSize=11;fontColor=default;endArrow=classic;" edge="1" parent="1" source="WZqHGrQ1ZvMK2-V5_D06-145" target="WZqHGrQ1ZvMK2-V5_D06-149">
          <mxGeometry relative="1" as="geometry" />
        </mxCell>
        <mxCell id="WZqHGrQ1ZvMK2-V5_D06-151" value="&lt;font style=&quot;font-size: 14px;&quot;&gt;uses&lt;/font&gt;" style="edgeLabel;html=1;align=center;verticalAlign=middle;resizable=0;points=[];fontSize=11;fontFamily=Helvetica;fontColor=default;" vertex="1" connectable="0" parent="WZqHGrQ1ZvMK2-V5_D06-150">
          <mxGeometry x="-0.2446" y="-4" relative="1" as="geometry">
            <mxPoint as="offset" />
          </mxGeometry>
        </mxCell>
        <mxCell id="WZqHGrQ1ZvMK2-V5_D06-145" value="Content_Repositroy" style="ellipse;whiteSpace=wrap;html=1;strokeWidth=2;fillColor=#f8cecc;strokeColor=#b85450;" vertex="1" parent="1">
          <mxGeometry x="630" y="1390" width="120" height="60" as="geometry" />
        </mxCell>
        <mxCell id="WZqHGrQ1ZvMK2-V5_D06-147" style="edgeStyle=orthogonalEdgeStyle;shape=connector;rounded=1;orthogonalLoop=1;jettySize=auto;html=1;exitX=1;exitY=0.5;exitDx=0;exitDy=0;labelBackgroundColor=default;strokeColor=default;strokeWidth=2;align=center;verticalAlign=middle;fontFamily=Helvetica;fontSize=11;fontColor=default;endArrow=classic;dashed=1;dashPattern=8 8;entryX=0.5;entryY=1;entryDx=0;entryDy=0;" edge="1" parent="1" source="WZqHGrQ1ZvMK2-V5_D06-146" target="WZqHGrQ1ZvMK2-V5_D06-136">
          <mxGeometry relative="1" as="geometry">
            <mxPoint x="950" y="1320" as="targetPoint" />
          </mxGeometry>
        </mxCell>
        <mxCell id="WZqHGrQ1ZvMK2-V5_D06-146" value="Metadata_Repository" style="ellipse;whiteSpace=wrap;html=1;strokeWidth=2;fillColor=#f8cecc;strokeColor=#b85450;" vertex="1" parent="1">
          <mxGeometry x="630" y="1320" width="120" height="60" as="geometry" />
        </mxCell>
        <mxCell id="WZqHGrQ1ZvMK2-V5_D06-149" value="Content_Services" style="ellipse;whiteSpace=wrap;html=1;strokeWidth=2;fillColor=#f8cecc;strokeColor=#b85450;" vertex="1" parent="1">
          <mxGeometry x="430" y="1390" width="120" height="60" as="geometry" />
        </mxCell>
        <mxCell id="WZqHGrQ1ZvMK2-V5_D06-161" value="Jursidiction Ontology" style="rounded=0;whiteSpace=wrap;html=1;fontFamily=Helvetica;fontSize=11;fillColor=#d5e8d4;strokeColor=#82b366;" vertex="1" parent="1">
          <mxGeometry x="50" y="1540" width="120" height="60" as="geometry" />
        </mxCell>
        <mxCell id="WZqHGrQ1ZvMK2-V5_D06-162" value="Enterprise Ontology" style="rounded=0;whiteSpace=wrap;html=1;fontFamily=Helvetica;fontSize=11;fillColor=#dae8fc;strokeColor=#6c8ebf;" vertex="1" parent="1">
          <mxGeometry x="50" y="1620" width="120" height="60" as="geometry" />
        </mxCell>
        <mxCell id="WZqHGrQ1ZvMK2-V5_D06-163" value="Implementation Ontology" style="rounded=0;whiteSpace=wrap;html=1;fontFamily=Helvetica;fontSize=11;fillColor=#f8cecc;strokeColor=#b85450;" vertex="1" parent="1">
          <mxGeometry x="50" y="1700" width="120" height="60" as="geometry" />
        </mxCell>
      </root>
    </mxGraphModel>
  </diagram>
</mxfile>
